<?xml version="1.0" encoding="utf-8"?>
<!-- Generator: Adobe Illustrator 16.0.4, SVG Export Plug-In . SVG Version: 6.00 Build 0)  -->
<!DOCTYPE svg PUBLIC "-//W3C//DTD SVG 1.1//EN" "http://www.w3.org/Graphics/SVG/1.1/DTD/svg11.dtd">
<svg version="1.1" id="Layer_1" xmlns="http://www.w3.org/2000/svg" xmlns:xlink="http://www.w3.org/1999/xlink" x="0px" y="0px"
	 width="360px" height="50px" viewBox="0 0 360 50" xml:space="preserve">
<g>
	<path fill="#C33C35" d="M6.155,11.546l8.453,0.655l3.888-0.655l3.91,11.707c0.233,2.592,0.881,5.191,1.944,7.798l4.543-14.962
		c0.699-2.432,2.432-3.946,5.198-4.543l4.543,0.655l1.966-0.655h1.944l0.655,6.509l-0.655,1.944l1.289,24.026l-1.944,1.311
		L36.69,45.99l-1.289-0.655l-0.655-5.832l0.655-1.966v-9.741c0.335-2.577,0.335-4.958,0-7.142l-1.311-0.655l-4.543,16.25
		l-1.289,8.431l-1.966,1.311l-5.832-1.311l-5.198-24.026c-0.903,1.238-1.559,2.752-1.966,4.543l0.655,19.483L8.754,45.99
		L6.81,45.335c-0.597-2.345-1.034-4.943-1.31-7.798l0.655-7.142L5.5,28.451l0.655-7.797L5.5,13.49L6.155,11.546z M10.698,18.688
		c0.131,0.568,0.568,1.005,1.311,1.311C11.863,19.562,11.426,19.125,10.698,18.688z M36.559,34.61l2.599-0.655l-2.599-0.654V34.61z"
		/>
	<path fill="#C33C35" d="M47.349,14.756h8.191l0.524,1.638l-0.524,3.822l0.524,1.092v21.23l-7.186,1.092
		c-0.976-2.606-1.485-5.692-1.529-9.26v-10.9l0.502-1.616l-0.502-3.822v-1.638h-0.524L47.349,14.756z"/>
	<path fill="#C33C35" d="M60.978,9.711c2.388,0.058,4.674,1.391,6.858,3.997l-0.961,11.314c1.616-1.514,3.247-3.735,4.893-6.662
		c1.267-2.796,3.065-5.234,5.395-7.317l7.841-0.655c0.582,0.35,0.91,1.012,0.983,1.988l-5.875,7.317l-2.949,2.665
		c0.451,1.995,1.106,3.99,1.966,5.984l7.841,15.967l-0.48,1.332l-1.485-0.677l-7.339,0.677l-1.485-2.665
		c-0.757-3.058-1.9-6.604-3.429-10.637c-1.878,1.253-3.517,3.029-4.915,5.329l0.502,5.963l-0.983,2.01l-2.949-0.677h-4.412v-8.628
		l0.502-2.009l-0.502-22.606L60.978,9.711z M63.446,35.222l-1.463,3.32c0.043,0.611,0.372,1.057,0.983,1.332l1.463-3.32
		C64.356,35.958,64.028,35.514,63.446,35.222z M64.56,20.501c0.087,0.583,0.408,1.027,0.961,1.333
		C65.448,21.236,65.128,20.792,64.56,20.501z M78.146,12.922l-1.966,3.32l1.485,0.677l1.463-2.665L78.146,12.922z"/>
	<path fill="#C33C35" d="M90.072,8.837l3.451,0.59l17.539,0.043l0.044,5.177l-10.681,0.633l-0.634-1.18l-0.437,0.896l-1.507-0.284
		l-2.424-1.441l-0.24,1.07l0.808,0.24l-1.158,1.289l1.726,0.021v4.106l13.695,0.502c-0.364,0.83-0.397,1.475-0.098,1.933
		c0.298,0.458,0.266,1.343-0.098,2.654l-0.153,1.529l-10.309-0.153l-3.036,0.568c0.029,1.806-0.167,2.839-0.59,3.101l0.983,0.263
		l-0.021,2.512l0.371-0.699l0.786,0.699c1.456-0.423,3.568-0.43,6.334-0.021h7.011l0.109,5.241l-0.83,1.136L91.95,39.241
		c-0.772,0.598-1.485,0.423-2.14-0.524l0.589-1.791l-0.655-1.093l0.328-12.318l0.437-1.769l-0.437-0.568l0.131-10.069
		C89.591,10.541,89.547,9.784,90.072,8.837z M94.353,17.618c0.117,0.713,0.4,1.267,0.852,1.66
		C95.103,18.535,94.818,17.982,94.353,17.618z M96.275,12.834l0.589,0.655l0.655-0.852l-1.769-0.393L96.275,12.834z"/>
	<path fill="#C33C35" d="M135.088,5.299l4.805-0.349l4.434,14.656c0.713,1.806,1.347,3.858,1.9,6.16l1.463,5.503l0.961,3.08
		l-2.424,0.131h-2.053l-1.944-5.592l-11.445,0.394l-0.961,5.308l-1.944,0.393l-2.053-0.261c-0.554-0.35-0.874-0.86-0.961-1.529
		l3.932-11.445c0.757-0.801,1.136-1.791,1.136-2.971c0.131-1.5,0.502-2.482,1.114-2.949l2.25-5.941
		C133.238,9.012,133.835,7.483,135.088,5.299z M136.66,11.458l-1.529,5.155l-3.298,9.261l4.914-0.087
		c1.63-0.437,2.854-0.557,3.669-0.36c0.815,0.197,0.597-2.078-0.655-6.826l-1.878-7.12L136.66,11.458z"/>
	<path fill="#C33C35" d="M158.589,5.365l6.575,0.196l-0.852,2.796l-2.577,12.821l-0.983,1.419l0.568,0.721l-3.801,14.13l15.028,1.05
		l5.832-0.721l0.524,2.271l-1.158,2.119l-21.995,0.896l-3.713,0.699c-0.029-0.466-0.408-0.939-1.136-1.42l2.555-9.261l2.861-14.241
		l1.136-2.14L158.589,5.365z"/>
	<path fill="#C33C35" d="M191.396,9.951l2.271,4.543l0.678,6.051l0.349,3.713l1.006,4.041c0.713-1.237,1.077-2.512,1.092-3.823
		l0.24-1.9l1.354-4.718l1.572-7.797h10.222c0.626,1.252,0.678,3.415,0.153,6.487l0.677,7.404l-0.393,11.577l-0.284,2.533v3.363
		l0.677,2.01l-0.677,0.677l-5.723,0.131l-1.682-1.484l0.896-17.342l-0.306-2.49l-1.245,1.026l-2.141,14.11l-0.568,6.05l-3.778,0.284
		l-3.188-1.005l-0.678-5.133l-0.961-4.718c-0.087-2.432-0.356-4.062-0.808-4.892l-2.01-6.051l-0.678,14.131l0.678,2.01l-0.109,4.172
		l-4.587,1.201l-3.364-0.677l1.333-12.756l-0.677-4.04l1.354-7.405l-1.354-6.705l0.677-2.708h2.687h4.608L191.396,9.951z
		 M186.132,34.698l-0.677-2.01l-1.813,1.354L186.132,34.698z M203.277,12.135l-1.223,3.691l2.446-0.35v-3.342H203.277z"/>
	<path fill="#C33C35" d="M218.174,12.376l1.726-2.512l7.186-0.174l1.573,2.926l3.037,18.697l0.852,3.801l1.66,8.431
		c-1.136,0.407-2.41,0.67-3.823,0.786c-1.573,0.219-2.847,0.044-3.822-0.524l-0.786-5.351l-1.856,0.152l-1.661-0.065l-1.135,5.723
		l-5.985,0.152l-1.594-1.157l0.721-4.718L218.174,12.376z M223.984,16.81c-0.889,2.592-1.464,5.643-1.727,9.152l-0.567,6.858
		l3.976-0.371c-0.438-1.105-0.691-3.123-0.765-6.05L223.984,16.81z M222.258,36.816v-1.136h-0.567L222.258,36.816z M226.823,22.532
		v-1.136h-0.568L226.823,22.532z M226.823,34.546c0.088,0.51,0.474,0.888,1.157,1.135C227.894,35.171,227.508,34.793,226.823,34.546
		z"/>
	<path fill="#C33C35" d="M241.655,7.156l7.819,0.568l1.551,1.136c1.383,2.257,2.082,4.907,2.097,7.95l-1.572,1.136l-3.648-1.136
		l-1.026,0.568l-0.524-0.568c-0.218-1.733-1.092-3.247-2.621-4.543l-0.502,2.839c0.99,2.578,2.723,4.66,5.198,6.247
		c1.894,1.325,3.633,3.225,5.22,5.701l0.503,8.518l-5.723,5.111l-7.819-0.568l-1.551-1.136c-0.888-2.519-1.587-5.168-2.097-7.95
		l0.523-2.271c1.864,0.015,3.779,0.583,5.745,1.704c0.204,2.257,1.42,3.771,3.647,4.543l0.503-3.407l-2.6-4.543l-6.247-4.543
		c-1.005-2.534-1.528-5.569-1.572-9.108C237.701,11,239.267,8.917,241.655,7.156z"/>
	<path fill="#C33C35" d="M272.998,2.744l14.48,1.048c0.263,1.98,1.173,2.374,2.731,1.18c0.626,0.626,1.441,1.856,2.445,3.691
		l-0.284,7.885c-1.528,1.485-3.05,3.233-4.564,5.242c1.428,0.699,2.606,1.799,3.539,3.298l-0.284,7.885
		c-0.641,1.951-1.559,4.143-2.752,6.574l-6.728,1.288h-8.562c-1.616-0.188-3.283-0.844-5.002-1.966l1.595-7.884l0.699-5.897
		l1.179,1.42l-0.174,2.599l0.896,0.809L272.474,25l-2.643-1.223l0.721-0.677l-0.109-4.587l0.83-1.31l-0.021-5.264l0.808-1.311
		l0.044-5.919L272.998,2.744z M279.77,23.1l-2.119,6.575c0.262,1.907,1.15,3.662,2.665,5.264c1.208-2.271,2.154-4.682,2.839-7.229
		C282.587,25.874,281.458,24.338,279.77,23.1z M279.987,21.134c-0.028-0.582-0.415-1.019-1.157-1.311
		C278.961,20.261,279.347,20.697,279.987,21.134z M280.752,9.318l-1.441,6.553c1.121,1.587,2.744,2.687,4.87,3.298l-0.437-1.966
		l1.223-4.609C284.006,11.109,282.602,10.017,280.752,9.318z M283.919,32.317h1.311l0.153-1.332h-0.655L283.919,32.317z"/>
	<path fill="#C33C35" d="M298.989,12.376l1.726-2.512l7.187-0.174l1.572,2.926l3.036,18.697l0.852,3.801l1.66,8.431
		c-1.136,0.407-2.409,0.67-3.822,0.786c-1.572,0.219-2.847,0.044-3.822-0.524l-0.786-5.351l-1.856,0.152l-1.66-0.065l-1.136,5.723
		l-5.984,0.152l-1.595-1.157l0.721-4.718L298.989,12.376z M304.8,16.81c-0.889,2.592-1.463,5.643-1.726,9.152l-0.567,6.858
		l3.975-0.371c-0.437-1.105-0.691-3.123-0.765-6.05L304.8,16.81z M303.074,36.816v-1.136h-0.567L303.074,36.816z M307.639,22.532
		v-1.136h-0.567L307.639,22.532z M307.639,34.546c0.088,0.51,0.474,0.888,1.158,1.135C308.709,35.171,308.324,34.793,307.639,34.546
		z"/>
	<path fill="#C33C35" d="M338.108,40.442l-0.218,6.814l-1.551-0.808l-5.265,0.523l-5.241-11.227
		c-1.894-5.053-3.095-7.782-3.604-8.19c0.699,3.859,0.91,7.404,0.634,10.637l0.043,8.06l-1.703,0.372l-4.106,0.021l0.153-5.023
		l-0.481-21.929l2.861-1.616l3.343,0.546l0.961,2.141c1.267,2.374,2.533,5.228,3.8,8.562c2.17,3.976,3.845,7.543,5.024,10.702
		v-8.016l-0.831-9.742c0.044-1.485,0.357-2.912,0.939-4.281l5.374,0.087l0.479,2.687l-0.479,1.07l-0.066,9.304l-0.589,8.06
		L338.108,40.442z M333.435,43.653l-1.07,1.616l2.141-0.546C334.389,44.374,334.031,44.018,333.435,43.653z"/>
	<path fill="#C33C35" d="M341.909,14.56l9.021,0.437c2.359,1.136,3.932,3.138,4.718,6.007l0.853,7.295l-0.438,1.703
		c-0.204,2.593-1.201,5.023-2.992,7.295c-2.854,0.524-5.999,0.809-9.436,0.852l-1.726,0.438c-0.073-0.291-0.356-0.575-0.852-0.852
		l0.852-4.303l-0.415-1.289l0.415-4.281l-0.415-1.288V16.286h-0.437L341.909,14.56z M347.064,18.841l-0.438,5.155l0.438,4.303
		l-0.438,4.281c0.801,0.742,1.806,1.172,3.015,1.288l1.288-3.866l-0.437-3.429l0.437-1.289c-0.116-1.922-0.407-3.924-0.874-6.006
		L347.064,18.841z"/>
</g>
</svg>
