<?xml version="1.0" encoding="utf-8"?>
<!-- Generator: Adobe Illustrator 16.0.4, SVG Export Plug-In . SVG Version: 6.00 Build 0)  -->
<!DOCTYPE svg PUBLIC "-//W3C//DTD SVG 1.1//EN" "http://www.w3.org/Graphics/SVG/1.1/DTD/svg11.dtd">
<svg version="1.1" id="Layer_1" xmlns="http://www.w3.org/2000/svg" xmlns:xlink="http://www.w3.org/1999/xlink" x="0px" y="0px"
	 width="2500px" height="2500px" viewBox="0 0 2500 2500" enable-background="new 0 0 2500 2500" xml:space="preserve">
<g>
	<g>
		<path fill-rule="evenodd" clip-rule="evenodd" fill="#F2ECC6" d="M1320.152,1247.592c27.975,7.099,69.893,31.451,93.55,35.173
			c16.106,2.357,32.661-2.303,47.108-4.535c4.617-0.094,9.202-2.391,13.822-2.527c30.735-5.669,49.063,11.779,42.303,43.396
			c-4.977,34.04-28.149,57.458-53.977,78.448c-6.873,4.725-11.834,9.469-18.745,14.137c-4.818,2.797-11.524,7.291-16.472,9.654
			c-27.932,11.494-51.393,27.951-72.494,48.736c-37.616,33.297-51.625,77.715-42.29,129.209c2.485,18.305,9.253,35.135,7.151,51.709
			c-2.382,41.832-14.242,77.381-44.523,107.84c-32.784,34.811-72.685,56.15-113.868,74.645
			c-28.081,11.697-59.787,14.279-90.268,16.779c-26.792,4.215-53.806,2.219-79.619-2.242
			c-84.258-12.262-155.107-51.715-208.589-117.635c-12.829-16.336-28.102-34.779-29.432-56.348
			c-0.811-2.322-4.557-4.611-6.915-6.885c-1.281-2.133-4.786-2.346-4.748-4.398c1.227-16.541-15.25-23.727-19.834-37.844
			c-2.471-9.398-9.42-18.576-14.093-27.877c-24.518-47.096-25.854-98.48-22.328-150.051c1.866-30.416,21.035-52.094,38.554-75.167
			c2.543-4.536,9.604-4.677,15.425-7.028c0.286-11.643,4.639-17.648,16.396-24.558c12.779-7.015,21.254-21.125,36.353-26.884
			c21.188-7.148,43.27-15.244,64.5-22.318c43.22-14.117,84.376-31.43,122.97-55.079c16.616-10.609,25.899-26.891,28.256-46.973
			c4.683-40.863,11.774-80.754,16.276-120.768c5.802-58.608,29.394-107.699,72.697-147.39c11.91-10.768,26.941-20.157,42.075-28.361
			c19.989-11.545,42.214,0.229,45.918,23.544c1.106,8.161,2.587,16.379,1.127,24.547c-2.236,22.371-5.883,44.709-7.067,67.999
			c-1.181,22.36-2.249,45.685,0.089,68.021c4.393,32.82,23.408,55.011,53.917,68.026c2.187-1.134,4.633-2.355,6.859-4.671
			c21.256-27.208,44.395-55.189,65.592-83.307c28.043-36.269,56.16-71.544,82.12-108.892
			c49.16-66.979,96.072-136.004,145.378-202.832c39.617-51.818,79.791-101.92,119.715-152.656
			c11.529-13.923,22.895-28.645,32.639-42.242c25.56-31.312,49.137-62.968,74.914-93.303c18.891-22.555,16.347-46.835,9.164-71.752
			c-4.458-11.945-18.658-27.646-21.062-39.693c-6.616-24.538,9.675-31.976,33.166-39.936c25.542-8.278,27.875-10.534,49.04-23.41
			c26.015-16.183,42.541-29.31,63.31-52.978c4.576-5.075,23.393-22.101,28.2-25.981c9.157-6.104,42.356-29.743,51.322-36.115
			c30.814-11.232,51.985-14.266,85.045,5.344c32.175,27.725,20.477,42.803,4.073,74.454c-34.923,27.056,2.065-4.346-16.212,10.984
			c-28.363,25.439-23.68,15.583-23.994,20.793c2.907-15.377-71.772,83.101-105.024,131.46
			c-16.536,23.107-53.913,72.453-70.547,97.136c-30.03,41.117-46.542,70.077-74.698,111.327
			c-21.189,31.656-32.855,48.182-53.995,80.497c-9.302,13.207-39.806,52.864-49.212,65.921
			c-16.59,23.545-42.29,48.155-58.797,72.604c-22.803,30.279-41.811,58.112-63.039,87.936
			c-20.881,27.061-39.691,55.162-62.977,79.822c-30.681,33.897-77.719,99.528-103.321,154.516
			c-13.97,21.342-18.865,28.358-32.943,50.469C1343.383,1217.176,1326.989,1237.067,1320.152,1247.592z M1178.105,1221.883
			c-4.585-1.255-4.632-15.384-8.248-17.509c-24.559-9.422-29.123-18.9-52.598,24.47c-10.63,13.152-19.983,28.375-28.083,44.589
			c-9.35,18.84-15.225,39.885-24.567,59.534c-16.608,36.511-44.552,61.854-85.674,67.403c-30.319,4.691-52.725,3.857-76.146,25.443
			c-23.345,21.365-47.018,72.479-26.998,96.287c23.509,30.305,58.572,41.773,94.97,51.371c11.768,4.443,71.522,30.273,82.004,37.232
			c28.202,16.959,32.83,33.016,51.661,61.172c18.589,25.896,17.431,47.006,44.439,58.527c24.579,9.43,54.232-30.049,63.518-54.006
			c4.156-9.025,6.941-16.148,8.889-23.328c2.474-37.299,7.333-72.773,4.957-110.025c-2.552-46.832,16.41-79.945,46.862-110.49
			c23.173-23.24,288.34-112.34,84.567-116.871c-9.716-0.041-37.492-6.963-40.149-12.9c-7.068-10.697-14.149-10.715-25.552-22.215
			c-12.021,11.811-14.022,16.209-21.028,32.666c-7.063,16.721-42.435,36.374-54.302,28.197
			c-20.864-12.99-27.955-15.367-46.771-30.529c-12.842-9.488-17.483-26.938-10.495-42.314
			C1166.528,1250.019,1168.695,1241.768,1178.105,1221.883z M1880.091,374.44c-4.581,3.508-11.587,8.221-16.479,14.126
			c-4.711,4.88-4.688,11.697-0.1,17.5c4.564,5.894,9.758,9.495,16.676,5.167c6.894-3.951,11.877-9.778,16.404-16.433
			C1903.399,385.184,1894.382,373.836,1880.091,374.44z M1940.836,320.512c7.768-0.63,19.298-12.61,19.023-20.879
			c-0.153-7.308-7.299-13.494-16.332-13.041c-9.406,0.535-20.892,12.04-18.977,20.677
			C1924.688,314.519,1931.952,320.703,1940.836,320.512z M2009.053,208.11c-11.565,1.088-20.913,10.464-20.582,20.2
			c1.602,10.209,8.858,17.516,18.341,17.197c11.636-0.84,21.001-11.504,20.69-22.491
			C2025.55,213.53,2018.426,207.131,2009.053,208.11z"/>
		<path fill-rule="evenodd" clip-rule="evenodd" fill="#F2ECC6" d="M1477.146,787.146c-2.475,5.832-14.053,15.181-18.706,18.67
			c-4.787,3.431-12.086,5.861-19.009,8.529c-6.882-0.192-34.998-4.822-51.477-8.562c-49.195-9.498-61.021-10.325-110.281-12.819
			c-41.841-2.307-86.653-2.398-127.653-1.736c-28.142,0.554-71.416,8.674-99.589,12.333c-48.139,6.922-92.582,30.358-139.503,49.145
			c-50.369,19.98-100.623,41.115-145.272,74.809c-27.037,20.087-57.196,37.585-82.029,59.934
			c-38.583,34.016-73.833,71.496-103.21,113.688c-12.757,17.66-26.555,35.186-38.642,52.853
			c-45.534,65.618-69.636,137.015-79.795,210.974c-2.393,18.514-6.804,35.172-7.899,53.652c-2.72,47.084,2.14,93.863,12.991,138.471
			c6.435,23.631,11.558,49.09,18.303,72.641c2.362,9.281,7.229,16.471,9.718,25.734c1.805,4.684,0.598,9.574,0.708,16.51
			c20.133,11.492,17.498,42.256,29.696,68.053c12.838,18.646,25.274,21.004,32.554,37.295c4.985,11.752,14.038,23.152,23.315,30.73
			c19.169,20.738,38.045,41.789,61.314,56.035c25.867,16.492,56.256,28.07,84.577,42.012c1.938,0.115,3.348-0.033,4.492,0.088
			c30.496,16.096,60.904,32.559,92.373,46.91c6.059,2.516,3.71,14.4,17.449,11.922c6.083-0.283,13.229,6.789,20.087,11.375
			c8.291,4.879,16.418,11.789,23.635,16.688c-4.798,16.131-15.308,18.484-25.867,20.912c-19.104,4.727-38.634,9.537-57.472,14.414
			c-4.621,2.066-9.519,2.387-12.807,6.619c-8.876,9.543-19.808,7.391-29.375,7.262c-23.481-0.246-31.333-7.111-54.117-9.482
			c-8.008-0.178-23.091-4.904-29.489-9.357c-50.413-28.016-95.738-54.002-137.801-93.695
			c-46.003-42.387-89.936-89.154-121.58-145.254c-23.818-42.098-29.697-82.002-52.057-124.287
			c-8.575-35.109-23.362-65.74-25.79-105.695c-4.337-67.949-10.621-142.508,1.097-210.887
			c14.079-84.371,65.723-155.771,104.418-235.436c23.667-49.174,63.107-83.125,98.505-125.346
			c36.388-43.386,81.922-80.97,127.735-115.888c49.384-37.535,87.954-55.25,143.019-81.177
			c70.385-33.876,92.521-38.485,166.508-57.907c29.211-7.553,53.823-10.308,83.124-15.72c51.469-8.463,94.858-10.734,146.515-10.59
			c39.592,2.514,82.021,3.352,93.775,3.339c60.719,9.311,60.814,4.603,93.613,13.138c44.487,14.051,18.689,6.827,61.139,22.266
			c11.803,6.184,18.812,11.803,18.812,11.803c9.121,8.434,6.691,10.182,6.957,15.208
			C1484.152,774.156,1483.859,777.713,1477.146,787.146z"/>
		<path fill-rule="evenodd" clip-rule="evenodd" fill="#F2ECC6" d="M1078.466,1589.693c-3.521-18.486-17.472-20.975-25.699-32.729
			c-11.795-16.59-18.823-44.295-29.325-62.996c-1.26-2.447-2.312-5.068-2.304-9.498c0.021-4.998,5.843-9.365,10.603-4.834
			c4.64,2.557,9.278,7.174,11.657,11.9c12.951,25.734,25.781,51.523,38.642,77.299
			C1084.489,1575.635,1086.738,1580.559,1078.466,1589.693z"/>
		<path fill-rule="evenodd" clip-rule="evenodd" fill="#F2ECC6" d="M1059.685,1420.979c10.423,2.482,17.637,4.939,24.761,7.043
			c22.285,2.551,40.881,14.27,58.452,25.979c3.771,2.492,7.236,11.568,7.213,16.449c-0.035,9.457-9.53,14.096-17.743,9.176
			c-11.7-9.16-20.99-23.215-33.859-25.838c-15.198-4.65-22.258-16.135-32.773-23.369
			C1063.558,1428.197,1062.243,1425.727,1059.685,1420.979z"/>
	</g>
	<path fill-rule="evenodd" clip-rule="evenodd" fill="none" d="M172.892,1972.096c0,0,190.455,538.76,887.694,524.908
		c696.931-13.607,1075.638-503.197,1075.638-503.197"/>
</g>
<path fill-rule="evenodd" clip-rule="evenodd" fill="#F2ECC6" d="M1198.142,1402.578c-6.978-7.34-11.778-12.434-15.28-18.951
	c-11.723-17.673-29.271-29.271-45.925-39.893c-4.575-2.441-13.776-2.408-18.571-0.094c-9.301,3.58-9.391,14.072-1.13,18.816
	c11.753,7.014,28.128,9.376,36.329,18.799c9.432,11.645,22.217,13.969,32.906,19.086
	C1188.826,1402.297,1192.824,1402.27,1198.142,1402.578z"/>
<path fill-rule="evenodd" clip-rule="evenodd" fill="#F2ECC6" d="M1154.805,1575.389c8.128-1.777,17.581-11.27,17.455-18.283
	c-1.062-6.875-7.019-11.652-13.99-11.562c-8.189,1.984-17.595,11.418-16.522,18.449
	C1141.859,1568.93,1148.818,1575.633,1154.805,1575.389z"/>
<path fill-rule="evenodd" clip-rule="evenodd" fill="#F2ECC6" d="M1155.929,1631.945c8.24-0.082,18.786-11.459,18.659-18.352
	c-1.062-5.09-7.19-9.844-15.111-9.752c-8.303,0.109-18.8,9.539-17.726,16.559
	C1141.862,1627.215,1148.907,1632.014,1155.929,1631.945z"/>
<path fill-rule="evenodd" clip-rule="evenodd" fill="#F2ECC6" d="M1155.935,1695.488c6.952-0.047,14.757-11.748,14.028-19.027
	c-0.202-7.146-5.936-14.006-11.752-13.943c-7,0.078-15.124,11.715-14.036,20.9C1144.3,1690.473,1151.078,1695.533,1155.935,1695.488
	z"/>
<path fill="#F2ECC6" d="M1636.169,857.562"/>
<path fill="#F2ECC6" d="M1725.561,725.925"/>
<path fill="#F2ECC6" d="M1636.169,857.562"/>
<path fill-rule="evenodd" clip-rule="evenodd" fill="#F2ECC6" d="M1725.561,725.925"/>
<path fill-rule="evenodd" clip-rule="evenodd" fill="#F2ECC6" d="M1636.169,857.562"/>
<path fill-rule="evenodd" clip-rule="evenodd" fill="#F2ECC6" d="M537.01,1915.783c30.507-28.025,21.736-41.918,48.606-39.816
	c34.688,12.078,20.61,6.998,47.536,21.014c28.854,16.1,42.096,18.771,72.647,32.504c56.241,18.656,70.338,21.047,126.751,32.74
	c46.813,9.432,100.561,16.756,147.56,23.666c32.785,4.633,83.117,4.367,115.997,4.688c56.292,0.684,109.005-14.357,165.142-25.885
	c58.767-11.77,117.469-25.664,171.401-51.631c32.824-16.299,69.838-30.127,98.562-48.893c46.752-28.232,91.072-60.99,128.429-98.707
	c14.39-16.418,30.958-32.648,47.121-49.076c56.33-60.768,89.077-129.021,105.55-204.105c4.535-18.57,9.531-37.09,13.279-53.787
	c5.438-49.221,3.013-98.394-6.483-147.484c-6.632-25.857-11.358-51.73-16.347-78.397c-2.308-9.537-7.136-17.917-9.52-28.263
	c-2.143-4.768,0.054-10.6,0.121-17.597c-23.264-14.143-18.457-46.938-30.437-76.172c-13.971-21.117-28.013-25.798-35.107-43.4
	c-4.854-13.033-14.204-25.799-25.546-37.384c-21.256-23.484-42.176-48.184-68.033-68.043c-11.926-9.494-11.966-10.668-23.726-19.933
	c-2.156-1.083-2.434-5.555-4.568-5.927c-2.115-6.147-0.185-10.511-0.167-15.249c-0.043-4.583,0.166-4.709,2.433-10.493
	c0,0,0.419-6.952,4.782-10.62c-0.083-3.388,6.881-9.185,7.186-12.79c2.112-0.073,7.312-10.444,9.219-10.682
	c2.202-4.564,9.397-11.694,11.536-14.952c2.308-4.673,4.846-5.069,7.429-8.276c2.177,0.089,11.58-4.675,11.325-4.285
	c2.612,0.623,2.892-3.019,16.489-1.88c9.279,2.273,13.883,2.741,21.036,8.256c56.361,37.526,16.575,9.399,63.286,57.455
	c51.068,52.801,98.393,108.04,131.296,171.283c23.976,47.951,28.39,90.255,51.763,138.328c8.994,38.483,23.293,73.497,23.355,115.85
	c0.125,71.422,4.393,148.73-14.159,219c-21.234,84.504-86.562,148.039-135.927,225.068c-30.522,46.811-77.659,74.945-121.898,112.49
	c-44.61,37.74-100.596,68.529-154.771,96.43c-60.768,30.393-105.484,42.129-171.056,60.617
	c-84.288,21.389-109.979,23.412-196.862,30.404c-33.964,2.463-63.141,0.381-97.174,0.404c-59.754,0.104-110.16-4.844-170.011-14.252
	c-44.508-9.428-94.871-18.191-108.833-19.076c-68.176-20.811-69.245-16.094-106.695-30.35
	c-50.365-23.229-21.043-11.338-70.302-34.922c-31.823-16.195-36.423-19.061-36.423-19.061
	c-9.004-11.354-14.796-10.945-24.634-20.441C551.149,1938.967,535.982,1932.043,537.01,1915.783z"/>
</svg>
